# xmcd
#
# Track frame offsets:
#  150
#  18735
#  35391
#  55548
#  83624
#  98158
#  112557
#  128979
#  143991
#  162412
#  176107
#  190970
#
# Disc length: 2729 seconds
#
# Revision: 0
# Processed by: cddbd v1.5.1PL2 Copyright (c) Steve Scherf et al.
# Submitted via: Collectorz.com_Music_Collector 6.11
#
DISCID=970aa70c
DTITLE=Sue Foley - New Used Car
DYEAR=2006
DGENRE=Blues -  Blues Female Vocalist
TTITLE0=New Used Car
TTITLE1=Make It Real
TTITLE2=When I Come Back To Ya
TTITLE3=Absolution
TTITLE4=Sugar
TTITLE5=Do It Again
TTITLE6=Mother
TTITLE7=Long Tomorrow
TTITLE8=Little Things
TTITLE9=Found My Love
TTITLE10=Deep Freeze
TTITLE11=Change Your Mind
EXTD=
EXTT0=
EXTT1=
EXTT2=
EXTT3=
EXTT4=
EXTT5=
EXTT6=
EXTT7=
EXTT8=
EXTT9=
EXTT10=
EXTT11=
PLAYORDER=
